<?xml version="1.0" encoding="utf-8"?>
<!-- Generator: Adobe Illustrator 19.0.0, SVG Export Plug-In . SVG Version: 6.00 Build 0)  -->
<svg version="1.1" id="Layer_1" xmlns="http://www.w3.org/2000/svg" xmlns:xlink="http://www.w3.org/1999/xlink" x="0px" y="0px"
	 viewBox="0 0 6250 1000" style="enable-background:new 0 0 6250 1000;" xml:space="preserve">
<style type="text/css">
	.st0{fill:url(#XMLID_2_);}
	.st1{fill:url(#XMLID_3_);}
	.st2{fill:#8DD134;}
</style>
<g id="XMLID_19_">
	
		<radialGradient id="XMLID_2_" cx="513.2651" cy="485.8766" r="403.7484" fx="482.1593" fy="258.5536" gradientUnits="userSpaceOnUse">
		<stop  offset="0" style="stop-color:#FFFFFF"/>
		<stop  offset="0.1444" style="stop-color:#FAFAFA"/>
		<stop  offset="0.3244" style="stop-color:#EAEAEA"/>
		<stop  offset="0.3674" style="stop-color:#E6E6E6"/>
		<stop  offset="0.479" style="stop-color:#D9D9D9"/>
		<stop  offset="0.683" style="stop-color:#B8B8B8"/>
		<stop  offset="0.7791" style="stop-color:#A6A6A6"/>
		<stop  offset="1" style="stop-color:#737373"/>
	</radialGradient>
	<circle id="XMLID_14_" class="st0" cx="513.3" cy="487.9" r="403.9"/>
	<linearGradient id="XMLID_3_" gradientUnits="userSpaceOnUse" x1="17.1818" y1="499.6784" x2="1009.4362" y2="499.6784">
		<stop  offset="0" style="stop-color:#FBFD37"/>
		<stop  offset="0.4713" style="stop-color:#B6FF15"/>
		<stop  offset="0.5297" style="stop-color:#AFFB14"/>
		<stop  offset="0.6172" style="stop-color:#9AEE12"/>
		<stop  offset="0.723" style="stop-color:#78DA0E"/>
		<stop  offset="0.8432" style="stop-color:#4ABF08"/>
		<stop  offset="0.9738" style="stop-color:#0F9C01"/>
		<stop  offset="1" style="stop-color:#029400"/>
	</linearGradient>
	<path id="XMLID_13_" class="st1" d="M745.2,7c0,0,1.9-0.3,5.5-1c3.6-0.6,8.9-1.8,16-2.7c14.2-2.1,35.1-4.6,62.1-3.4
		c26.7,1.2,60.4,6.5,94,25.7c4.1,2.6,8.3,5.1,12.3,8c3.9,3.1,8.2,5.8,11.9,9.4c1.9,1.7,3.9,3.4,5.8,5.2l0.4,0.3
		c0.2,0.2,0-0.1,0.6,0.6l0.6,0.7l1.3,1.4l2.6,2.7c1.7,1.8,3.5,3.7,5.2,5.5c1.8,1.8,3.4,4.3,5.1,6.4c13.8,17.5,24,38.1,30.8,61
		c13.5,45.8,12.3,98.1,2.2,150.4c-9.9,52.6-29.8,105.4-54.7,157.6c-25.3,52-56.3,103.2-91.9,152.1c-17.7,24.6-36.6,48.5-56.5,71.9
		c-19.8,23.5-40.6,46-62.2,68.1l-16,16.2l-16.8,16.2c-5.6,5.5-11.3,10.6-16.9,15.8c-5.7,5.2-11.3,10.5-17.1,15.5
		c-23,20.4-46.8,39.7-71,58.3c-24.2,18.6-49.2,35.8-74.6,51.7c-25.4,16.1-51.5,30.3-78,43.1c-53,25.1-107.8,43.9-162.5,51.7
		c-27.3,4-54.5,5.4-81.1,3.5c-26.5-2.2-52.3-8-75.7-17.9c-23.5-9.8-44.1-24.3-60.1-41.2l-1.5-1.5l-0.4-0.4c-1.2-1.3-0.5-0.6-0.9-1
		l-0.6-0.7l-2.5-3c-1.6-2-3.3-3.9-4.9-5.9c-3.4-4.7-7.1-9.6-10-14.2c-5.7-9.3-10.5-18.7-14.1-28.1c-7.4-18.8-11.2-37-13.2-53.8
		c-1.8-16.8-1.4-32.1-0.7-45.8c1-13.7,2.7-25.7,4.6-36c1-5.1,2-9.9,2.9-14.3c1.1-4.3,2.1-8.2,3-11.7c1.7-7,3.5-12.2,4.5-15.8
		c1.1-3.5,1.6-5.4,1.6-5.4c0.4-1.5,2-2.3,3.4-1.8c1.3,0.4,2.1,1.6,1.9,2.9l0,0.1c0,0-0.2,1.9-0.6,5.5c-0.3,3.6-1.1,9-1.5,16
		c-1.1,14-2.1,34.7-0.3,60.3c2.3,25.4,7.4,56.6,23.4,86.2c4,7.4,8.7,14.5,13.9,21.5c2.6,3.4,5.3,6.2,8,9.5c1.8,1.8,3.6,3.6,5.4,5.3
		l2.7,2.7l0.7,0.7c-0.1-0.1,0.8,0.8-0.2-0.2l0.3,0.3l1.3,1.1c13.7,11.9,30.4,21.3,49.3,27.7c18.9,6.4,40.1,9.5,62.5,9.7
		c22.3,0.5,45.8-1.9,69.7-6.7c12-2.3,24-5.4,36.2-8.7c6.1-1.8,12.2-3.6,18.3-5.4c6.1-2,12.2-4.1,18.4-6.1
		c24.5-8.9,49.4-18.9,74-30.8c24.8-11.5,49.5-24.6,74.1-38.8c24.5-14.3,49.1-29.3,72.9-46c23.9-16.6,47.6-34,70.4-52.8
		c5.8-4.6,11.4-9.5,17-14.2c5.6-4.8,11.4-9.5,16.8-14.5l16.5-14.7l16.6-15.5c21.4-20.4,42.4-41.6,62.2-63.6
		c20-21.9,39.1-44.4,57-67.6c36.1-46.1,67.7-94.6,93.7-143.8c25.8-49.3,46-99.4,57.7-148.7c11.7-49.1,14.7-97.8,4.2-139.8
		c-5.1-20.9-13.9-40.2-25-55.7c-1.4-2-2.5-3.9-4.2-5.8c-1.7-1.9-3.3-3.8-5-5.8l-2.5-2.8l-1.2-1.4l-0.6-0.7c0.5,0.5-0.1,0,0,0
		l-0.3-0.3c-1.7-1.6-3.4-3.3-5.1-4.9c-3.2-3.4-7-6-10.4-9c-3.6-2.8-7.3-5.2-10.9-7.8c-14.9-9.5-30.4-15.9-45.3-20.2
		c-14.9-4.4-29.1-6.7-42-7.9c-25.9-2.5-46.7-1.1-60.5,0.2c-7,0.5-12.4,1.4-16,1.8c-3.6,0.5-5.5,0.7-5.5,0.7
		c-1.5,0.2-2.9-0.9-3.1-2.4C742.8,8.6,743.8,7.3,745.2,7z"/>
</g>
<g id="XMLID_25_">
	<path id="XMLID_26_" class="st2" d="M1775.5,181.8l-3.7,16.7c-0.9,8.4-3.7,11.2-13,11.2h-348.9l-46.5,266.1h307.9
		c9.3,0,12.1,2.8,10.2,11.2l-3.7,16.7c-1.9,9.3-4.7,12.1-14,12.1h-307.9l-48.4,274.4h361.9c9.3,0,11.2,2.8,9.3,11.2l-2.8,16.7
		c-1.9,9.3-4.7,12.1-14,12.1h-392.6c-9.3,0-11.2-2.8-9.3-12.1l112.6-636.3c0.9-9.3,3.7-12.1,13-12.1h380.5
		C1774.6,169.7,1777.3,172.5,1775.5,181.8z"/>
	<path id="XMLID_28_" class="st2" d="M2130.9,156.7c161.9,0,236.3,92.1,211.2,234.4l-40,227c-25.1,142.3-125.6,225.1-287.5,225.1
		c-163.7,0-239.1-91.2-214-233.5l40.9-227C1865.7,240.4,1967.1,156.7,2130.9,156.7z M2125.3,196.7c-135.8,0-220.5,68.8-241,189.8
		l-40.9,227c-20.5,119.1,40,189.8,175.8,189.8c134,0,218.6-70.7,240-189.8l40-227C2320.7,267.4,2260.2,196.7,2125.3,196.7z"/>
	<path id="XMLID_31_" class="st2" d="M2722.5,156.7c124.7,0,182.3,55.8,210.3,142.3c2.8,8.4,0,12.1-8.4,14.9l-16.7,8.4
		c-9.3,2.8-12.1,2.8-14.9-5.6c-24.2-74.4-72.6-119.1-176.8-119.1c-120,0-198.2,46.5-213,135.8c-19.5,109.8,79.1,133,182.3,144.2
		c111.6,13,223.3,42.8,198.2,186.1c-21.4,120.9-109.8,179.6-273.5,179.6c-130.2,0-200-54-225.1-162.8c-1.9-9.3,0-13,9.3-16.7
		l19.5-6.5c8.4-2.8,11.2-1.9,14,7.4c24.2,95.8,81.9,137.7,186.1,137.7c134.9,0,210.3-46.5,227.9-145.1
		c19.5-109.8-74.4-125.6-173-137.7c-113.5-14-233.5-46.5-208.4-190.7C2480.7,216.2,2574.6,156.7,2722.5,156.7z"/>
	<path id="XMLID_33_" class="st2" d="M3346.8,488.8c67.9,26,94,84.7,80,164.7c-20.5,117.2-98.6,189.8-250.3,189.8
		c-144.2,0-197.2-59.5-209.3-165.6c-1.9-8.4,0.9-12.1,10.2-14.9l17.7-6.5c8.4-2.8,12.1-0.9,14,8.4c11.2,92.1,47.4,138.6,172.1,138.6
		c121.9,0,186.1-57.7,202.8-152.6c14.9-84.7-23.3-139.5-113.5-139.5h-155.4c-8.4,0-11.2-2.8-9.3-11.2l2.8-15.8
		c0.9-9.3,5.6-12.1,14-12.1h149.8c87.5,0,135.8-61.4,147.9-129.3c15.8-93-32.6-146.1-133-146.1c-116.3,0-168.4,40-213,133
		c-4.7,8.4-8.4,9.3-16.7,6.5l-15.8-5.6c-8.4-2.8-10.2-6.5-5.6-15.8c50.2-106.1,120-158.2,259.6-158.2c125.6,0,187,71.6,166.5,186.1
		C3451,407,3414.7,465.6,3346.8,488.8z"/>
	<path id="XMLID_35_" class="st2" d="M4064.1,419.1l-29.8,169.3c-27,151.6-137.7,241.9-310.7,241.9h-191.6c-9.3,0-11.2-2.8-9.3-12.1
		l112.6-636.3c0.9-9.3,3.7-12.1,13-12.1h190.7C4012,169.7,4091.1,267.4,4064.1,419.1z M3832.4,209.7h-160l-102.3,580.5h160
		c145.1,0,239.1-76.3,262.4-205.6l29.8-169.3C4045.5,286,3978.5,209.7,3832.4,209.7z"/>
	<path id="XMLID_38_" class="st2" d="M4426,575.4l-2.8,15.8c-0.9,8.4-4.7,11.2-13,11.2h-254c-8.4,0-11.2-2.8-10.2-11.2l2.8-15.8
		c1.9-8.4,5.6-11.2,14-11.2h254C4425,564.2,4427.8,567,4426,575.4z"/>
	<path id="XMLID_40_" class="st2" d="M5219.5,181.8L5107,818.2c-1.9,9.3-5.6,12.1-14,12.1h-18.6c-8.4,0-11.2-2.8-9.3-12.1l76.3-427
		c8.4-48.4,19.5-100.5,33.5-155.4h-1.9c-31.6,48.4-60.5,89.3-93,133l-217.7,294c-5.6,7.4-9.3,9.3-16.7,9.3h-10.2
		c-8.4,0-11.2-0.9-14-9.3l-116.3-297.7c-16.7-41.9-29.8-81.9-43.7-129.3h-1.9c-5.6,54.9-14,105.1-22.3,155.4l-75.4,427
		c-1.9,9.3-4.7,12.1-14,12.1h-18.6c-9.3,0-11.2-2.8-9.3-12.1l112.6-636.3c0.9-9.3,3.7-12.1,13-12.1h14c10.2,0,13,2.8,15.8,10.2
		l172.1,440l324.7-439.1c5.6-8.4,9.3-11.2,18.6-11.2h18.6C5217.7,169.7,5220.5,172.5,5219.5,181.8z"/>
	<path id="XMLID_42_" class="st2" d="M5806.6,378.1c-24.2,125.6-113.5,195.4-240,195.4H5347l-42.8,244.7c-1.9,9.3-5.6,12.1-14,12.1
		h-19.5c-9.3,0-11.2-2.8-9.3-12.1L5374,181.8c0.9-9.3,3.7-12.1,13-12.1h250.3C5763.8,169.7,5829.8,251.6,5806.6,378.1z
		 M5762.9,372.5c18.6-102.3-34.4-162.8-135.8-162.8h-215.8l-56.8,323.8h214.9C5671.7,533.5,5745.2,474,5762.9,372.5z"/>
	<path id="XMLID_45_" class="st2" d="M5991.7,181.8l-107.9,608.4h338.6c9.3,0,11.2,2.8,9.3,11.2l-2.8,16.7
		c-1.9,9.3-4.7,12.1-14,12.1h-369.3c-9.3,0-11.2-2.8-9.3-12.1l112.6-636.3c0.9-9.3,3.7-12.1,13-12.1h19.5
		C5989.8,169.7,5992.6,172.5,5991.7,181.8z"/>
</g>
</svg>
